<?xml version="1.0"?>
<svg xmlns="http://www.w3.org/2000/svg" xmlns:xlink="http://www.w3.org/1999/xlink" version="1.1" id="Capa_1" x="0px" y="0px" viewBox="0 0 24.435 24.435" style="enable-background:new 0 0 24.435 24.435;" xml:space="preserve" width="512px" height="512px"><g><g>
	<path d="M22.178,5.259c0,0-0.9-5.423-9.191-5.252c0,0-8.637-0.55-9.329,8.052c0,0-0.103,0.725,0.486,0.793   c0,0,0.931,0.069-0.071,1.14c-1,1.073-2.07,2.662-2.209,2.902c-0.138,0.243-1.243,1.831,0.484,1.728c0,0,1.519-0.31,1.311,0.691   l-0.136,0.655c0,0-0.449,0.761,0.484,0.657c0,0,0.311-0.033,0.138,0.379c0,0-0.552,1.106,0.311,0.829c0,0,0.415-0.102,0.278,0.796   c-0.141,0.897-0.727,2.972,2.208,2.66c2.936-0.311,5.113-0.862,4.769,2.937c0,0,1.21,0.553,2.764-0.141   c0,0-0.036-3.658-4.805-5.663c0,0-2.209-2.833-2.625-5.562c0,0,3.11,5.733,7.115,5.145c0,0,3.666,0.865,4.527-2.211   c0.864-3.072,1.314-6.943,1.314-6.978c0-0.033,0.966,6.117-1.036,9.987c0,0-0.555,1.138,0.622,3.558c0,0,0.655-0.241,1.14-0.796   c0,0-0.829-2.591,1.104-5.701C21.83,15.865,24.317,10.407,22.178,5.259z M17.443,1.496c-1.484,3.039-4.42,3.59-4.42,3.59   C14.263,1.875,17.443,1.496,17.443,1.496z M12.216,2.497c-0.043,2.867-3.375,4.561-3.375,4.561   C9.285,3.423,12.216,2.497,12.216,2.497z M6.182,10.027C5.73,6.332,7.977,5.295,7.977,5.295C8.43,8.508,6.182,10.027,6.182,10.027z    M7.013,12.217c2.002-5.995,7.391-6.128,7.391-6.128C9.291,9.163,7.013,12.217,7.013,12.217z M9.912,10.614c0,0,2.141-2.004,5.01,0   C14.923,10.614,11.949,12.548,9.912,10.614z M15.075,17.675c-1.026,0.297-2.136-0.419-2.48-1.603   c-0.345-1.183,0.208-2.384,1.236-2.681c1.025-0.299,2.136,0.419,2.481,1.602C16.655,16.176,16.1,17.375,15.075,17.675z M13.383,8.3   c2.979-2.143,5.473-0.014,5.44,0C14.974,9.84,13.383,8.3,13.383,8.3z M16.062,6.089c1.521-2.868,4.249-2.591,4.249-2.591   C18.72,5.985,16.062,6.089,16.062,6.089z" data-original="#000000" class="active-path" data-old_color="#000000" fill="#C94C4C"/>
	<g>
	</g>
	<g>
	</g>
	<g>
	</g>
	<g>
	</g>
	<g>
	</g>
	<g>
	</g>
	<g>
	</g>
	<g>
	</g>
	<g>
	</g>
	<g>
	</g>
	<g>
	</g>
	<g>
	</g>
	<g>
	</g>
	<g>
	</g>
	<g>
	</g>
</g></g> </svg>
