<?xml version="1.0"?>
<svg xmlns="http://www.w3.org/2000/svg" xmlns:xlink="http://www.w3.org/1999/xlink" version="1.1" id="Capa_1" x="0px" y="0px" width="512px" height="512px" viewBox="0 0 40.378 40.379" style="enable-background:new 0 0 40.378 40.379;" xml:space="preserve"><g><g>
	<path d="M15.14,19.953l-7.811,0.022c0.113-1.989,0.87-3.943,2.271-5.529L15.14,19.953z M7.329,21.072   c0.125,1.984,0.896,3.933,2.307,5.517l5.508-5.537L7.329,21.072z M15.892,11.359c-1.984,0.125-3.932,0.894-5.514,2.307l5.535,5.506   L15.892,11.359z M10.415,27.363c1.586,1.4,3.541,2.158,5.529,2.271l-0.021-7.811L10.415,27.363z M17.044,29.634   c1.982-0.122,3.932-0.895,5.514-2.306l-5.537-5.507L17.044,29.634z M25.605,19.921c-0.125-1.984-0.893-3.932-2.307-5.515   l-5.506,5.537L25.605,19.921z M16.991,11.359l0.021,7.81l5.508-5.539C20.935,12.231,18.98,11.475,16.991,11.359z M23.334,26.55   c1.399-1.586,2.158-3.541,2.271-5.528l-7.811,0.021L23.334,26.55z M36.447,37.543l-2.819,2.836l-8.051-8.005l0.704-0.708   l-1.663-1.651c-2.271,1.949-5.125,3.021-8.15,3.021c-3.334,0-6.475-1.295-8.84-3.646c-2.373-2.361-3.688-5.507-3.696-8.855   c-0.009-3.349,1.286-6.5,3.647-8.875c1.957-1.969,4.454-3.193,7.156-3.565c-1.118-3.091-5.167-4.543-5.212-4.56l0.651-1.891   c0.182,0.062,3.252,1.158,5.223,3.614c0.117-0.985,0.562-3.336,2.213-4.483c2.117-1.472,5.413-0.392,5.413-0.392   s-0.137,3.466-2.254,4.938c-1.635,1.136-3.967,0.752-4.947,0.518c0.425,0.635,0.772,1.342,0.981,2.139   c3.209,0.085,6.219,1.359,8.504,3.631c2.375,2.361,3.688,5.506,3.695,8.854c0.01,3.013-1.045,5.86-2.978,8.132l1.662,1.652   l0.705-0.709L36.447,37.543z M23.939,27.926c1.984-1.994,3.074-4.646,3.066-7.458c-0.01-2.814-1.113-5.457-3.107-7.441   c-1.988-1.977-4.627-3.065-7.43-3.065c-2.825,0-5.479,1.104-7.473,3.108c-1.984,1.996-3.072,4.645-3.064,7.459   c0.009,2.813,1.111,5.458,3.107,7.442c1.987,1.977,4.625,3.063,7.428,3.063C19.294,31.035,21.947,29.932,23.939,27.926z" data-original="#000000" class="active-path" data-old_color="#000000" fill="#C94C4C"/>
</g></g> </svg>
